{"title":"De.Naermeste.2015.DVDRip.x264-PTP","uid":12593438,"size":1650508376,"categoryP":"video","categoryS":"movies","magnet":"?xt=urn:btih:858374af93329164e6bd19029d9c125be758c409&amp;dn=De.Naermeste.2015.DVDRip.x264-PTP&amp;tr=udp%3A%2F%2Ftracker.leechers-paradise.org%3A6969&amp;tr=udp%3A%2F%2Fzer0day.ch%3A1337&amp;tr=udp%3A%2F%2Fopen.demonii.com%3A1337&amp;tr=udp%3A%2F%2Ftracker.coppersurfer.tk%3A6969&amp;tr=udp%3A%2F%2Fexodus.desync.com%3A6969","seeders":2,"leechers":0,"uploader":"noriegaRJ","files":2,"time":1445198190,"description":"Title: De naermeste aka Homesick\r\n\r\nRelease: De.Naermeste.2015.DVDRip.x264-PTP\r\n\r\n\r\nIMDB Link:                                                         \nhttp://www.imdb.com/title/tt4210992/\r\n\r\n\r\nPlot: Two separated half siblings meet for the first time.\r\n\r\n\r\nSUBTITLES IN ENGLISH, DANISH, SWEDISH, FINNISH AND NORWEGIAN.\r\n\r\n\r\n\r\nGeneral\r\nComplete name                            : De.Naermeste.2015.DVDRip.x264-PTP\r\nFormat                                   : Matroska\r\nFormat version                           : Version 2\r\nFile size                                : 1.54 GiB\r\nDuration                                 : 1h 38mn\r\nOverall bit rate                         : 2 235 Kbps\r\nEncoded date                             : UTC \r\nWriting application                      : HandBrake 0.10.2 2015060900\r\nWriting library                          : Lavf55.12.0\r\n\r\nVideo\r\nID                                       : 1\r\nFormat                                   : AVC\r\nFormat/Info                              : Advanced Video Codec\r\nFormat profile                           :   \r\nFormat settings, CABAC                   : Yes\r\nFormat settings, ReFrames                : 4 frames\r\nCodec ID                                 : V_MPEG4/ISO/AVC\r\nDuration                                 : 1h 38mn\r\nBit rate                                 : 1 742 Kbps\r\nWidth                                    : 720 pixels\r\nHeight                                   : 428 pixels\r\nDisplay aspect ratio                     : 2.40:1\r\nFrame rate mode                          : Constant\r\nFrame rate                               : 20.833 fps\r\nColor space                              : YUV\r\nChroma subsampling                       : 4:2:0\r\nBit depth                                : 8 bits\r\nScan type                                : Progressive\r\nBits/(Pixel*Frame)                       : 0.271\r\nStream size                              : 1.20 GiB (78%)\r\nWriting library                          : x264 core 142 r2479 dd79a61\r\nDefault                                  : Yes\r\nForced                                   : No\r\nColor primaries                          : BT.601 PAL\r\nTransfer characteristics                 : BT.709\r\nMatrix coefficients                      : BT.601\r\n\r\nAudio\r\nID                                       : 2\r\nFormat                                   : AC-3\r\nFormat/Info                              : Audio Coding 3\r\nMode extension                           : CM (complete main)\r\nFormat settings, Endianness              : Big\r\nCodec ID                                 : A_AC3\r\nDuration                                 : 1h 38mn\r\nBit rate mode                            : Constant\r\nBit rate                                 : 448 Kbps\r\nChannel count                            : 6 channels\r\nChannel positions                        : Front: L C R, Side: L R, LFE\r\nSampling rate                            : 48.0 KHz\r\nBit depth                                : 16 bits\r\nCompression mode                         : Lossy\r\nStream size                              : 316 MiB (20%)\r\nTitle                                    : Surround\r\nLanguage                                 : Norwegian\r\nDefault                                  : Yes\r\nForced                                   : No\r\n\r\nText #1\r\nID                                       : 3\r\nFormat                                   : VobSub\r\nCodec ID                                 : S_VOBSUB\r\nCodec ID/Info                            : The same subtitle format used on DVDs\r\nLanguage                                 : Danish\r\nDefault                                  : No\r\nForced                                   : No\r\n\r\nText #2\r\nID                                       : 4\r\nFormat                                   : VobSub\r\nCodec ID                                 : S_VOBSUB\r\nCodec ID/Info                            : The same subtitle format used on DVDs\r\nLanguage                                 : Swedish\r\nDefault                                  : No\r\nForced                                   : No\r\n\r\nText #3\r\nID                                       : 5\r\nFormat                                   : VobSub\r\nCodec ID                                 : S_VOBSUB\r\nCodec ID/Info                            : The same subtitle format used on DVDs\r\nLanguage                                 : Finnish\r\nDefault                                  : No\r\nForced                                   : No\r\n\r\nText #4\r\nID                                       : 6\r\nFormat                                   : VobSub\r\nCodec ID                                 : S_VOBSUB\r\nCodec ID/Info                            : The same subtitle format used on DVDs\r\nLanguage                                 : Norwegian\r\nDefault                                  : No\r\nForced                                   : No\r\n\r\n\r\n\r\nThanks to those helping me seed. Leechers remember, the community depends on you. If nobody shares, the freebies go away. Remember, the only reason you can download this free movie is because others are generous enough to keep sharing it with you. If nobody shares, everybody loses, so even if its for an extra hour or two after you get it, remember, others want to see it too, and they can't without you.\r\n\r\n\r\nSEE MY OTHERS UPLOADS:                                                                                 \nhttp://thepiratebay.se/user/noriegaRJ\r\n\r\nAND SEE THIS ANOTHERS UPLOADS FROM &quot;HORiZON-ArtSubs&quot;:                                 \nhttp://thepiratebay.se/user/artsubs                                 \nhttp://thepiratebay.se/user/lletaif","torrent":{"xt":"urn:btih:858374af93329164e6bd19029d9c125be758c409","amp;dn":"De.Naermeste.2015.DVDRip.x264-PTP","amp;tr":["udp%3A%2F%2Ftracker.leechers-paradise.org%3A6969","udp%3A%2F%2Fzer0day.ch%3A1337","udp%3A%2F%2Fopen.demonii.com%3A1337","udp%3A%2F%2Ftracker.coppersurfer.tk%3A6969","udp%3A%2F%2Fexodus.desync.com%3A6969"],"infoHash":"858374af93329164e6bd19029d9c125be758c409","infoHashBuffer":{"type":"Buffer","data":[133,131,116,175,147,50,145,100,230,189,25,2,157,156,18,91,231,88,196,9]},"announce":[],"urlList":[]}}